<mxfile host="app.diagrams.net" agent="Mozilla/5.0 (Windows NT 10.0; Win64; x64) AppleWebKit/537.36 (KHTML, like Gecko) Chrome/130.0.0.0 Safari/537.36" version="24.8.3">
  <diagram name="Page-1" id="10a91c8b-09ff-31b1-d368-03940ed4cc9e">
    <mxGraphModel dx="1434" dy="738" grid="1" gridSize="10" guides="1" tooltips="1" connect="1" arrows="1" fold="1" page="1" pageScale="1" pageWidth="1100" pageHeight="850" background="none" math="0" shadow="0">
      <root>
        <mxCell id="0" />
        <mxCell id="1" parent="0" />
        <mxCell id="62893188c0fa7362-1" value="&lt;font style=&quot;font-size: 37px;&quot;&gt;Ω&lt;/font&gt;" style="whiteSpace=wrap;html=1;rounded=1;shadow=1;labelBackgroundColor=none;strokeWidth=1;fontFamily=Verdana;fontSize=37;align=center;" parent="1" vertex="1">
          <mxGeometry x="140" y="270" width="80" height="60" as="geometry" />
        </mxCell>
        <mxCell id="62893188c0fa7362-2" value="&lt;font style=&quot;font-size: 21px;&quot;&gt;¬C&lt;/font&gt;" style="whiteSpace=wrap;html=1;rounded=1;shadow=1;labelBackgroundColor=none;strokeWidth=1;fontFamily=Verdana;fontSize=18;align=center;" parent="1" vertex="1">
          <mxGeometry x="340" y="390" width="90" height="60" as="geometry" />
        </mxCell>
        <mxCell id="62893188c0fa7362-3" value="&lt;font style=&quot;font-size: 21px;&quot;&gt;C&lt;/font&gt;" style="whiteSpace=wrap;html=1;rounded=1;shadow=1;labelBackgroundColor=none;strokeWidth=1;fontFamily=Verdana;fontSize=18;align=center;" parent="1" vertex="1">
          <mxGeometry x="340" y="150" width="90" height="60" as="geometry" />
        </mxCell>
        <mxCell id="62893188c0fa7362-4" value="P(C) =0.0002" style="rounded=0;html=1;labelBackgroundColor=none;startArrow=none;startFill=0;startSize=5;endArrow=none;endFill=0;endSize=5;jettySize=auto;orthogonalLoop=1;strokeWidth=1;fontFamily=Verdana;fontSize=14;" parent="1" source="62893188c0fa7362-1" target="62893188c0fa7362-3" edge="1">
          <mxGeometry x="-0.2" y="40" relative="1" as="geometry">
            <mxPoint as="offset" />
          </mxGeometry>
        </mxCell>
        <mxCell id="62893188c0fa7362-5" value="P(¬C)=0.9998" style="rounded=0;html=1;labelBackgroundColor=none;startArrow=none;startFill=0;startSize=5;endArrow=none;endFill=0;endSize=5;jettySize=auto;orthogonalLoop=1;strokeWidth=1;fontFamily=Verdana;fontSize=14;" parent="1" source="62893188c0fa7362-1" target="62893188c0fa7362-2" edge="1">
          <mxGeometry y="-45" relative="1" as="geometry">
            <mxPoint as="offset" />
          </mxGeometry>
        </mxCell>
        <mxCell id="qZlSOuv3uemz-grl-lLI-18" value="" style="edgeStyle=none;curved=1;rounded=0;orthogonalLoop=1;jettySize=auto;html=1;fontSize=12;startSize=8;endSize=8;" parent="1" source="62893188c0fa7362-8" target="qZlSOuv3uemz-grl-lLI-17" edge="1">
          <mxGeometry relative="1" as="geometry" />
        </mxCell>
        <mxCell id="62893188c0fa7362-8" value="¬C∩¬P" style="whiteSpace=wrap;html=1;rounded=1;shadow=1;labelBackgroundColor=none;strokeWidth=1;fontFamily=Verdana;fontSize=18;align=center;" parent="1" vertex="1">
          <mxGeometry x="590" y="440" width="100" height="60" as="geometry" />
        </mxCell>
        <mxCell id="qZlSOuv3uemz-grl-lLI-16" value="" style="edgeStyle=none;curved=1;rounded=0;orthogonalLoop=1;jettySize=auto;html=1;fontSize=12;startSize=8;endSize=8;" parent="1" source="62893188c0fa7362-9" target="qZlSOuv3uemz-grl-lLI-15" edge="1">
          <mxGeometry relative="1" as="geometry" />
        </mxCell>
        <mxCell id="62893188c0fa7362-9" value="¬C∩P" style="whiteSpace=wrap;html=1;rounded=1;shadow=1;labelBackgroundColor=none;strokeWidth=1;fontFamily=Verdana;fontSize=18;align=center;" parent="1" vertex="1">
          <mxGeometry x="590" y="340" width="100" height="60" as="geometry" />
        </mxCell>
        <mxCell id="62893188c0fa7362-14" value="P(¬P|¬C) =0.95" style="rounded=0;html=1;labelBackgroundColor=none;startArrow=none;startFill=0;startSize=5;endArrow=none;endFill=0;endSize=5;jettySize=auto;orthogonalLoop=1;strokeWidth=1;fontFamily=Verdana;fontSize=14;" parent="1" source="62893188c0fa7362-2" target="62893188c0fa7362-8" edge="1">
          <mxGeometry x="0.1809" y="-24" relative="1" as="geometry">
            <mxPoint as="offset" />
          </mxGeometry>
        </mxCell>
        <mxCell id="62893188c0fa7362-15" value="P(P|¬C)=0.05" style="rounded=0;html=1;labelBackgroundColor=none;startArrow=none;startFill=0;startSize=5;endArrow=none;endFill=0;endSize=5;jettySize=auto;orthogonalLoop=1;strokeWidth=1;fontFamily=Verdana;fontSize=14;" parent="1" source="62893188c0fa7362-2" target="62893188c0fa7362-9" edge="1">
          <mxGeometry x="0.1809" y="24" relative="1" as="geometry">
            <mxPoint as="offset" />
          </mxGeometry>
        </mxCell>
        <mxCell id="62893188c0fa7362-16" value="P(¬P|C)=0.15" style="rounded=0;html=1;labelBackgroundColor=none;startArrow=none;startFill=0;startSize=5;endArrow=none;endFill=0;endSize=5;jettySize=auto;orthogonalLoop=1;strokeWidth=1;fontFamily=Verdana;fontSize=14;" parent="1" source="62893188c0fa7362-3" target="qZlSOuv3uemz-grl-lLI-4" edge="1">
          <mxGeometry x="0.1809" y="-24" relative="1" as="geometry">
            <mxPoint as="offset" />
            <mxPoint x="580" y="217.5" as="targetPoint" />
          </mxGeometry>
        </mxCell>
        <mxCell id="62893188c0fa7362-17" value="P(P|C)=0.85" style="rounded=0;html=1;labelBackgroundColor=none;startArrow=none;startFill=0;startSize=5;endArrow=none;endFill=0;endSize=5;jettySize=auto;orthogonalLoop=1;strokeWidth=1;fontFamily=Verdana;fontSize=14;" parent="1" source="62893188c0fa7362-3" target="qZlSOuv3uemz-grl-lLI-3" edge="1">
          <mxGeometry x="0.1612" y="19" relative="1" as="geometry">
            <mxPoint as="offset" />
            <mxPoint x="580" y="142.5" as="targetPoint" />
          </mxGeometry>
        </mxCell>
        <mxCell id="qZlSOuv3uemz-grl-lLI-12" value="" style="edgeStyle=orthogonalEdgeStyle;rounded=0;orthogonalLoop=1;jettySize=auto;html=1;" parent="1" source="qZlSOuv3uemz-grl-lLI-3" target="qZlSOuv3uemz-grl-lLI-11" edge="1">
          <mxGeometry relative="1" as="geometry" />
        </mxCell>
        <mxCell id="qZlSOuv3uemz-grl-lLI-3" value="C&lt;span style=&quot;text-align: left;&quot;&gt;∩&lt;/span&gt;P" style="whiteSpace=wrap;html=1;rounded=1;shadow=1;labelBackgroundColor=none;strokeWidth=1;fontFamily=Verdana;fontSize=18;align=center;" parent="1" vertex="1">
          <mxGeometry x="590" y="110" width="100" height="60" as="geometry" />
        </mxCell>
        <mxCell id="qZlSOuv3uemz-grl-lLI-14" value="" style="edgeStyle=orthogonalEdgeStyle;rounded=0;orthogonalLoop=1;jettySize=auto;html=1;" parent="1" source="qZlSOuv3uemz-grl-lLI-4" target="qZlSOuv3uemz-grl-lLI-13" edge="1">
          <mxGeometry relative="1" as="geometry" />
        </mxCell>
        <mxCell id="qZlSOuv3uemz-grl-lLI-4" value="C∩¬P" style="whiteSpace=wrap;html=1;rounded=1;shadow=1;labelBackgroundColor=none;strokeWidth=1;fontFamily=Verdana;fontSize=18;align=center;" parent="1" vertex="1">
          <mxGeometry x="590" y="200" width="100" height="60" as="geometry" />
        </mxCell>
        <mxCell id="qZlSOuv3uemz-grl-lLI-11" value="P(C∩P) = 0.0002*0.85" style="ellipse;whiteSpace=wrap;html=1;fontSize=18;fontFamily=Verdana;rounded=1;shadow=0;labelBackgroundColor=none;strokeWidth=1;fillColor=none;strokeColor=none;" parent="1" vertex="1">
          <mxGeometry x="740" y="100" width="270" height="80" as="geometry" />
        </mxCell>
        <mxCell id="qZlSOuv3uemz-grl-lLI-13" value="&lt;span style=&quot;color: rgb(0, 0, 0); font-family: Verdana; font-size: 18px; font-style: normal; font-variant-ligatures: normal; font-variant-caps: normal; font-weight: 400; letter-spacing: normal; orphans: 2; text-align: center; text-indent: 0px; text-transform: none; widows: 2; word-spacing: 0px; -webkit-text-stroke-width: 0px; background-color: rgb(251, 251, 251); text-decoration-thickness: initial; text-decoration-style: initial; text-decoration-color: initial; float: none; display: inline !important;&quot;&gt;P(C∩¬P) = 0.0002*0.15&lt;/span&gt;" style="ellipse;whiteSpace=wrap;html=1;fontSize=18;fontFamily=Verdana;rounded=1;shadow=0;labelBackgroundColor=none;strokeWidth=1;fillColor=none;strokeColor=none;" parent="1" vertex="1">
          <mxGeometry x="740" y="190" width="270" height="80" as="geometry" />
        </mxCell>
        <mxCell id="qZlSOuv3uemz-grl-lLI-15" value="&lt;span style=&quot;color: rgb(0, 0, 0); font-family: Verdana; font-size: 18px; font-style: normal; font-variant-ligatures: normal; font-variant-caps: normal; font-weight: 400; letter-spacing: normal; orphans: 2; text-align: center; text-indent: 0px; text-transform: none; widows: 2; word-spacing: 0px; -webkit-text-stroke-width: 0px; background-color: rgb(251, 251, 251); text-decoration-thickness: initial; text-decoration-style: initial; text-decoration-color: initial; float: none; display: inline !important;&quot;&gt;P(¬C∩P) = 0.9998*0.05&lt;/span&gt;" style="ellipse;whiteSpace=wrap;html=1;fontSize=18;fontFamily=Verdana;rounded=1;shadow=0;labelBackgroundColor=none;strokeWidth=1;strokeColor=none;fillColor=none;" parent="1" vertex="1">
          <mxGeometry x="740" y="330" width="270" height="80" as="geometry" />
        </mxCell>
        <mxCell id="qZlSOuv3uemz-grl-lLI-17" value="&lt;span style=&quot;color: rgb(0, 0, 0); font-family: Verdana; font-size: 18px; font-style: normal; font-variant-ligatures: normal; font-variant-caps: normal; font-weight: 400; letter-spacing: normal; orphans: 2; text-align: center; text-indent: 0px; text-transform: none; widows: 2; word-spacing: 0px; -webkit-text-stroke-width: 0px; background-color: rgb(251, 251, 251); text-decoration-thickness: initial; text-decoration-style: initial; text-decoration-color: initial; float: none; display: inline !important;&quot;&gt;P(¬C∩¬P) = 0.9998*0.95&lt;/span&gt;" style="ellipse;whiteSpace=wrap;html=1;fontSize=18;fontFamily=Verdana;rounded=1;shadow=0;labelBackgroundColor=none;strokeWidth=1;fillColor=none;strokeColor=none;" parent="1" vertex="1">
          <mxGeometry x="750" y="430" width="260" height="80" as="geometry" />
        </mxCell>
      </root>
    </mxGraphModel>
  </diagram>
</mxfile>
